<svg width="140" height="75" viewBox="0 0 140 75" fill="none" xmlns="http://www.w3.org/2000/svg">
<mask id="path-1-outside-1_1300_2" maskUnits="userSpaceOnUse" x="0" y="13" width="137" height="39" fill="black">
<rect fill="white" y="13" width="137" height="39"/>
<path d="M2.336 50L14.048 18.032H22.4L34.256 50H27.056L24.464 42.704H11.888L9.44 50H2.336ZM13.904 36.752H22.4L18.08 24.512L13.904 36.752ZM45.8101 50.72C44.5301 50.72 43.1061 50.608 41.5381 50.384C39.9701 50.192 38.3701 49.92 36.7381 49.568V14.96H43.4101V27.68C45.2981 25.632 47.6181 24.608 50.3701 24.608C53.2181 24.608 55.4261 25.68 56.9941 27.824C58.5941 29.936 59.3941 32.896 59.3941 36.704C59.3941 41.248 58.2261 44.72 55.8901 47.12C53.5541 49.52 50.1941 50.72 45.8101 50.72ZM46.5301 44.816C50.5941 44.816 52.6261 42.24 52.6261 37.088C52.6261 35.008 52.2901 33.392 51.6181 32.24C50.9461 31.088 49.9701 30.512 48.6901 30.512C46.6101 30.512 44.8501 31.92 43.4101 34.736V44.384C43.9221 44.512 44.4501 44.624 44.9941 44.72C45.5381 44.784 46.0501 44.816 46.5301 44.816ZM75.1396 50.72C72.6116 50.72 70.4036 50.176 68.5156 49.088C66.6276 48 65.1556 46.48 64.0996 44.528C63.0436 42.576 62.5156 40.288 62.5156 37.664C62.5156 35.04 63.0436 32.752 64.0996 30.8C65.1556 28.848 66.6276 27.328 68.5156 26.24C70.4036 25.152 72.5956 24.608 75.0916 24.608C77.6196 24.608 79.8116 25.152 81.6676 26.24C83.5556 27.296 85.0276 28.8 86.0836 30.752C87.1396 32.672 87.6676 34.928 87.6676 37.52C87.6676 40.144 87.1396 42.448 86.0836 44.432C85.0596 46.416 83.6036 47.968 81.7156 49.088C79.8276 50.176 77.6356 50.72 75.1396 50.72ZM75.0916 44.864C76.8196 44.864 78.1956 44.208 79.2196 42.896C80.2756 41.552 80.8036 39.792 80.8036 37.616C80.8036 35.44 80.2756 33.712 79.2196 32.432C78.1956 31.12 76.8196 30.464 75.0916 30.464C73.3636 30.464 71.9716 31.12 70.9156 32.432C69.8916 33.712 69.3796 35.44 69.3796 37.616C69.3796 39.792 69.8916 41.552 70.9156 42.896C71.9716 44.208 73.3636 44.864 75.0916 44.864ZM100.167 50.672C97.5428 50.672 95.4788 49.872 93.9748 48.272C92.4708 46.64 91.7188 44.448 91.7188 41.696V25.28H98.4868V40.592C98.4868 41.904 98.8068 42.928 99.4468 43.664C100.087 44.368 100.951 44.72 102.039 44.72C103.159 44.72 104.215 44.368 105.207 43.664C106.199 42.96 107.031 42.016 107.703 40.832V25.28H114.471V50H107.703V46.736C106.871 47.856 105.863 48.8 104.679 49.568C103.495 50.304 101.991 50.672 100.167 50.672ZM128.805 50.72C126.501 50.72 124.709 50.144 123.429 48.992C122.181 47.808 121.557 46.144 121.557 44V31.088H117.717V25.28H121.557V20C123.861 19.616 126.101 19.328 128.277 19.136V25.28H134.517V31.088H128.277V42.752C128.277 44.128 129.045 44.816 130.581 44.816C131.477 44.816 132.501 44.608 133.653 44.192L135.141 49.28C133.093 50.24 130.981 50.72 128.805 50.72Z"/>
</mask>
<path d="M2.336 50L1.39703 49.656L0.904634 51H2.336V50ZM14.048 18.032V17.032H13.3494L13.109 17.688L14.048 18.032ZM22.4 18.032L23.3376 17.6843L23.0957 17.032H22.4V18.032ZM34.256 50V51H35.6934L35.1936 49.6523L34.256 50ZM27.056 50L26.1137 50.3348L26.35 51H27.056V50ZM24.464 42.704L25.4063 42.3692L25.17 41.704H24.464V42.704ZM11.888 42.704V41.704H11.1687L10.9399 42.3859L11.888 42.704ZM9.44 50V51H10.1593L10.3881 50.3181L9.44 50ZM13.904 36.752L12.9576 36.4291L12.5062 37.752H13.904V36.752ZM22.4 36.752V37.752H23.8134L23.343 36.4192L22.4 36.752ZM18.08 24.512L19.023 24.1792L18.064 21.462L17.1336 24.1891L18.08 24.512ZM3.27497 50.344L14.987 18.376L13.109 17.688L1.39703 49.656L3.27497 50.344ZM14.048 19.032H22.4V17.032H14.048V19.032ZM21.4624 18.3797L33.3184 50.3477L35.1936 49.6523L23.3376 17.6843L21.4624 18.3797ZM34.256 49H27.056V51H34.256V49ZM27.9983 49.6652L25.4063 42.3692L23.5217 43.0388L26.1137 50.3348L27.9983 49.6652ZM24.464 41.704H11.888V43.704H24.464V41.704ZM10.9399 42.3859L8.49194 49.6819L10.3881 50.3181L12.8361 43.0221L10.9399 42.3859ZM9.44 49H2.336V51H9.44V49ZM13.904 37.752H22.4V35.752H13.904V37.752ZM23.343 36.4192L19.023 24.1792L17.137 24.8448L21.457 37.0848L23.343 36.4192ZM17.1336 24.1891L12.9576 36.4291L14.8504 37.0749L19.0264 24.8349L17.1336 24.1891ZM41.5381 50.384L41.6795 49.3941L41.6696 49.3926L41.6597 49.3914L41.5381 50.384ZM36.7381 49.568H35.7381V50.3753L36.5273 50.5455L36.7381 49.568ZM36.7381 14.96V13.96H35.7381V14.96H36.7381ZM43.4101 14.96H44.4101V13.96H43.4101V14.96ZM43.4101 27.68H42.4101V30.2401L44.1454 28.3578L43.4101 27.68ZM56.9941 27.824L56.187 28.4143L56.1919 28.4211L56.197 28.4279L56.9941 27.824ZM51.6181 32.24L52.4819 31.7361L51.6181 32.24ZM43.4101 34.736L42.5198 34.2807L42.4101 34.4951V34.736H43.4101ZM43.4101 44.384H42.4101V45.1648L43.1676 45.3541L43.4101 44.384ZM44.9941 44.72L44.8203 45.7048L44.8487 45.7098L44.8773 45.7132L44.9941 44.72ZM45.8101 49.72C44.587 49.72 43.2112 49.6129 41.6795 49.3941L41.3967 51.374C43.001 51.6031 44.4733 51.72 45.8101 51.72V49.72ZM41.6597 49.3914C40.1233 49.2033 38.5531 48.9365 36.949 48.5905L36.5273 50.5455C38.1872 50.9035 39.817 51.1807 41.4166 51.3766L41.6597 49.3914ZM37.7381 49.568V14.96H35.7381V49.568H37.7381ZM36.7381 15.96H43.4101V13.96H36.7381V15.96ZM42.4101 14.96V27.68H44.4101V14.96H42.4101ZM44.1454 28.3578C45.8467 26.5123 47.9013 25.608 50.3701 25.608V23.608C47.335 23.608 44.7496 24.7517 42.6749 27.0022L44.1454 28.3578ZM50.3701 25.608C52.926 25.608 54.8226 26.5488 56.187 28.4143L57.8013 27.2337C56.0296 24.8112 53.5102 23.608 50.3701 23.608V25.608ZM56.197 28.4279C57.6189 30.3047 58.3941 33.0218 58.3941 36.704H60.3941C60.3941 32.7702 59.5694 29.5673 57.7912 27.2201L56.197 28.4279ZM58.3941 36.704C58.3941 41.0825 57.2708 44.2677 55.1735 46.4225L56.6067 47.8175C59.1814 45.1723 60.3941 41.4135 60.3941 36.704H58.3941ZM55.1735 46.4225C53.0789 48.5745 50.0113 49.72 45.8101 49.72V51.72C50.3769 51.72 54.0293 50.4655 56.6067 47.8175L55.1735 46.4225ZM46.5301 45.816C48.7878 45.816 50.6368 45.0886 51.8873 43.5033C53.1021 41.9633 53.6261 39.7684 53.6261 37.088H51.6261C51.6261 39.5596 51.1342 41.2287 50.317 42.2647C49.5355 43.2554 48.3365 43.816 46.5301 43.816V45.816ZM53.6261 37.088C53.6261 34.9213 53.2797 33.1038 52.4819 31.7361L50.7543 32.7439C51.3006 33.6802 51.6261 35.0947 51.6261 37.088H53.6261ZM52.4819 31.7361C51.6399 30.2927 50.3437 29.512 48.6901 29.512V31.512C49.5965 31.512 50.2523 31.8833 50.7543 32.7439L52.4819 31.7361ZM48.6901 29.512C46.0588 29.512 44.0324 31.3228 42.5198 34.2807L44.3005 35.1913C45.6679 32.5172 47.1614 31.512 48.6901 31.512V29.512ZM42.4101 34.736V44.384H44.4101V34.736H42.4101ZM43.1676 45.3541C43.7034 45.4881 44.2543 45.6049 44.8203 45.7048L45.1679 43.7352C44.6459 43.6431 44.1409 43.5359 43.6527 43.4139L43.1676 45.3541ZM44.8773 45.7132C45.4548 45.7811 46.0061 45.816 46.5301 45.816V43.816C46.0942 43.816 45.6215 43.7869 45.111 43.7268L44.8773 45.7132ZM64.0996 44.528L64.9792 44.0522L64.0996 44.528ZM64.0996 30.8L64.9792 31.2758L64.0996 30.8ZM81.6676 26.24L81.1619 27.1027L81.1706 27.1078L81.1795 27.1128L81.6676 26.24ZM86.0836 30.752L85.2041 31.2278L85.2074 31.2339L86.0836 30.752ZM86.0836 44.432L85.2008 43.9621L85.195 43.9734L86.0836 44.432ZM81.7156 49.088L82.215 49.9545L82.2258 49.9481L81.7156 49.088ZM79.2196 42.896L78.4333 42.2782L78.4313 42.2807L79.2196 42.896ZM79.2196 32.432L78.4313 33.0473L78.4396 33.0579L78.4483 33.0684L79.2196 32.432ZM70.9156 32.432L70.1366 31.805L70.1348 31.8073L70.9156 32.432ZM70.9156 42.896L70.1202 43.502L70.1283 43.5126L70.1366 43.523L70.9156 42.896ZM75.1396 49.72C72.7585 49.72 70.7282 49.2089 69.0149 48.2216L68.0163 49.9544C70.079 51.1431 72.4647 51.72 75.1396 51.72V49.72ZM69.0149 48.2216C67.2905 47.2278 65.9488 45.8445 64.9792 44.0522L63.2201 45.0038C64.3625 47.1155 65.9648 48.7722 68.0163 49.9544L69.0149 48.2216ZM64.9792 44.0522C64.0155 42.2708 63.5156 40.1521 63.5156 37.664H61.5156C61.5156 40.4239 62.0718 42.8812 63.2201 45.0038L64.9792 44.0522ZM63.5156 37.664C63.5156 35.1758 64.0155 33.0572 64.9792 31.2758L63.2201 30.3242C62.0718 32.4468 61.5156 34.9041 61.5156 37.664H63.5156ZM64.9792 31.2758C65.9488 29.4835 67.2905 28.1002 69.0149 27.1064L68.0163 25.3736C65.9648 26.5558 64.3625 28.2125 63.2201 30.3242L64.9792 31.2758ZM69.0149 27.1064C70.7301 26.118 72.745 25.608 75.0916 25.608V23.608C72.4462 23.608 70.0771 24.186 68.0163 25.3736L69.0149 27.1064ZM75.0916 25.608C77.4732 25.608 79.4843 26.1193 81.1619 27.1027L82.1733 25.3773C80.139 24.1847 77.766 23.608 75.0916 23.608V25.608ZM81.1795 27.1128C82.8976 28.0737 84.2358 29.438 85.2041 31.2278L86.9632 30.2762C85.8194 28.162 84.2137 26.5183 82.1558 25.3672L81.1795 27.1128ZM85.2074 31.2339C86.1685 32.9814 86.6676 35.0656 86.6676 37.52H88.6676C88.6676 34.7904 88.1107 32.3626 86.9598 30.2701L85.2074 31.2339ZM86.6676 37.52C86.6676 40.0077 86.1679 42.1453 85.2009 43.9622L86.9664 44.9018C88.1113 42.7507 88.6676 40.2803 88.6676 37.52H86.6676ZM85.195 43.9734C84.2555 45.7937 82.9293 47.2053 81.2054 48.2279L82.2258 49.9481C84.278 48.7307 85.8638 47.0383 86.9723 44.8906L85.195 43.9734ZM81.2163 48.2216C79.5011 49.21 77.4862 49.72 75.1396 49.72V51.72C77.785 51.72 80.1541 51.142 82.2149 49.9544L81.2163 48.2216ZM75.0916 45.864C77.1139 45.864 78.7862 45.0767 80.0079 43.5113L78.4313 42.2807C77.6051 43.3393 76.5254 43.864 75.0916 43.864V45.864ZM80.0059 43.5138C81.2344 41.9503 81.8036 39.954 81.8036 37.616H79.8036C79.8036 39.63 79.3169 41.1537 78.4333 42.2782L80.0059 43.5138ZM81.8036 37.616C81.8036 35.2808 81.2354 33.304 79.991 31.7956L78.4483 33.0684C79.3158 34.12 79.8036 35.5992 79.8036 37.616H81.8036ZM80.0079 31.8167C78.7862 30.2513 77.1139 29.464 75.0916 29.464V31.464C76.5254 31.464 77.6051 31.9887 78.4313 33.0473L80.0079 31.8167ZM75.0916 29.464C73.07 29.464 71.3881 30.2501 70.1366 31.805L71.6946 33.059C72.5552 31.9899 73.6572 31.464 75.0916 31.464V29.464ZM70.1348 31.8073C68.9285 33.3152 68.3796 35.2875 68.3796 37.616H70.3796C70.3796 35.5925 70.8548 34.1088 71.6965 33.0567L70.1348 31.8073ZM68.3796 37.616C68.3796 39.9475 68.9296 41.9394 70.1202 43.502L71.7111 42.29C70.8537 41.1646 70.3796 39.6365 70.3796 37.616H68.3796ZM70.1366 43.523C71.3881 45.0779 73.07 45.864 75.0916 45.864V43.864C73.6572 43.864 72.5552 43.3381 71.6946 42.269L70.1366 43.523ZM93.9748 48.272L93.2394 48.9497L93.2461 48.9569L93.9748 48.272ZM91.7188 25.28V24.28H90.7188V25.28H91.7188ZM98.4868 25.28H99.4868V24.28H98.4868V25.28ZM99.4468 43.664L98.6921 44.3202L98.6994 44.3285L98.7068 44.3367L99.4468 43.664ZM105.207 43.664L105.785 44.4795L105.207 43.664ZM107.703 40.832L108.572 41.3256L108.703 41.096V40.832H107.703ZM107.703 25.28V24.28H106.703V25.28H107.703ZM114.471 25.28H115.471V24.28H114.471V25.28ZM114.471 50V51H115.471V50H114.471ZM107.703 50H106.703V51H107.703V50ZM107.703 46.736H108.703V43.7129L106.9 46.1397L107.703 46.736ZM104.679 49.568L105.207 50.4173L105.215 50.4122L105.223 50.407L104.679 49.568ZM100.167 49.672C97.7605 49.672 95.9819 48.9472 94.7034 47.5871L93.2461 48.9569C94.9756 50.7968 97.325 51.672 100.167 51.672V49.672ZM94.7101 47.5943C93.4147 46.1886 92.7188 44.2599 92.7188 41.696H90.7188C90.7188 44.6361 91.5268 47.0914 93.2394 48.9497L94.7101 47.5943ZM92.7188 41.696V25.28H90.7188V41.696H92.7188ZM91.7188 26.28H98.4868V24.28H91.7188V26.28ZM97.4868 25.28V40.592H99.4868V25.28H97.4868ZM97.4868 40.592C97.4868 42.0612 97.8463 43.3475 98.6921 44.3202L100.201 43.0078C99.7672 42.5085 99.4868 41.7468 99.4868 40.592H97.4868ZM98.7068 44.3367C99.5644 45.28 100.714 45.72 102.039 45.72V43.72C101.188 43.72 100.609 43.456 100.187 42.9913L98.7068 44.3367ZM102.039 45.72C103.384 45.72 104.64 45.2927 105.785 44.4795L104.628 42.8485C103.79 43.4433 102.933 43.72 102.039 43.72V45.72ZM105.785 44.4795C106.91 43.6812 107.837 42.6216 108.572 41.3256L106.833 40.3384C106.225 41.4104 105.487 42.2388 104.628 42.8485L105.785 44.4795ZM108.703 40.832V25.28H106.703V40.832H108.703ZM107.703 26.28H114.471V24.28H107.703V26.28ZM113.471 25.28V50H115.471V25.28H113.471ZM114.471 49H107.703V51H114.471V49ZM108.703 50V46.736H106.703V50H108.703ZM106.9 46.1397C106.14 47.1629 105.22 48.0251 104.135 48.729L105.223 50.407C106.506 49.5749 107.602 48.5491 108.506 47.3323L106.9 46.1397ZM104.151 48.7187C103.167 49.3302 101.861 49.672 100.167 49.672V51.672C102.121 51.672 103.822 51.2778 105.207 50.4173L104.151 48.7187ZM123.429 48.992L122.741 49.7175L122.75 49.7265L122.76 49.7353L123.429 48.992ZM121.557 31.088H122.557V30.088H121.557V31.088ZM117.717 31.088H116.717V32.088H117.717V31.088ZM117.717 25.28V24.28H116.717V25.28H117.717ZM121.557 25.28V26.28H122.557V25.28H121.557ZM121.557 20L121.393 19.0136L120.557 19.1529V20H121.557ZM128.277 19.136H129.277V18.0439L128.189 18.1399L128.277 19.136ZM128.277 25.28H127.277V26.28H128.277V25.28ZM134.517 25.28H135.517V24.28H134.517V25.28ZM134.517 31.088V32.088H135.517V31.088H134.517ZM128.277 31.088V30.088H127.277V31.088H128.277ZM133.653 44.192L134.613 43.9113L134.314 42.8901L133.313 43.2514L133.653 44.192ZM135.141 49.28L135.566 50.1855L136.341 49.8218L136.101 48.9993L135.141 49.28ZM128.805 49.72C126.663 49.72 125.14 49.1864 124.098 48.2487L122.76 49.7353C124.278 51.1016 126.339 51.72 128.805 51.72V49.72ZM124.117 48.2665C123.115 47.3158 122.557 45.9417 122.557 44H120.557C120.557 46.3463 121.247 48.3002 122.741 49.7175L124.117 48.2665ZM122.557 44V31.088H120.557V44H122.557ZM121.557 30.088H117.717V32.088H121.557V30.088ZM118.717 31.088V25.28H116.717V31.088H118.717ZM117.717 26.28H121.557V24.28H117.717V26.28ZM122.557 25.28V20H120.557V25.28H122.557ZM121.722 20.9864C124.002 20.6063 126.216 20.3217 128.365 20.1321L128.189 18.1399C125.986 18.3343 123.72 18.6257 121.393 19.0136L121.722 20.9864ZM127.277 19.136V25.28H129.277V19.136H127.277ZM128.277 26.28H134.517V24.28H128.277V26.28ZM133.517 25.28V31.088H135.517V25.28H133.517ZM134.517 30.088H128.277V32.088H134.517V30.088ZM127.277 31.088V42.752H129.277V31.088H127.277ZM127.277 42.752C127.277 43.6243 127.526 44.4534 128.186 45.0448C128.825 45.6176 129.684 45.816 130.581 45.816V43.816C129.942 43.816 129.649 43.6704 129.52 43.5552C129.413 43.4586 129.277 43.2557 129.277 42.752H127.277ZM130.581 45.816C131.627 45.816 132.769 45.5744 133.993 45.1326L133.313 43.2514C132.233 43.6416 131.327 43.816 130.581 43.816V45.816ZM132.693 44.4727L134.181 49.5607L136.101 48.9993L134.613 43.9113L132.693 44.4727ZM134.717 48.3745C132.796 49.2748 130.829 49.72 128.805 49.72V51.72C131.134 51.72 133.39 51.2052 135.566 50.1855L134.717 48.3745Z" fill="#E8A61B" mask="url(#path-1-outside-1_1300_2)"/>
<path d="M5.336 53L17.048 21.032H25.4L37.256 53H30.056L27.464 45.704H14.888L12.44 53H5.336ZM16.904 39.752H25.4L21.08 27.512L16.904 39.752ZM48.8101 53.72C47.5301 53.72 46.1061 53.608 44.5381 53.384C42.9701 53.192 41.3701 52.92 39.7381 52.568V17.96H46.4101V30.68C48.2981 28.632 50.6181 27.608 53.3701 27.608C56.2181 27.608 58.4261 28.68 59.9941 30.824C61.5941 32.936 62.3941 35.896 62.3941 39.704C62.3941 44.248 61.2261 47.72 58.8901 50.12C56.5541 52.52 53.1941 53.72 48.8101 53.72ZM49.5301 47.816C53.5941 47.816 55.6261 45.24 55.6261 40.088C55.6261 38.008 55.2901 36.392 54.6181 35.24C53.9461 34.088 52.9701 33.512 51.6901 33.512C49.6101 33.512 47.8501 34.92 46.4101 37.736V47.384C46.9221 47.512 47.4501 47.624 47.9941 47.72C48.5381 47.784 49.0501 47.816 49.5301 47.816ZM78.1396 53.72C75.6116 53.72 73.4036 53.176 71.5156 52.088C69.6276 51 68.1556 49.48 67.0996 47.528C66.0436 45.576 65.5156 43.288 65.5156 40.664C65.5156 38.04 66.0436 35.752 67.0996 33.8C68.1556 31.848 69.6276 30.328 71.5156 29.24C73.4036 28.152 75.5956 27.608 78.0916 27.608C80.6196 27.608 82.8116 28.152 84.6676 29.24C86.5556 30.296 88.0276 31.8 89.0836 33.752C90.1396 35.672 90.6676 37.928 90.6676 40.52C90.6676 43.144 90.1396 45.448 89.0836 47.432C88.0596 49.416 86.6036 50.968 84.7156 52.088C82.8276 53.176 80.6356 53.72 78.1396 53.72ZM78.0916 47.864C79.8196 47.864 81.1956 47.208 82.2196 45.896C83.2756 44.552 83.8036 42.792 83.8036 40.616C83.8036 38.44 83.2756 36.712 82.2196 35.432C81.1956 34.12 79.8196 33.464 78.0916 33.464C76.3636 33.464 74.9716 34.12 73.9156 35.432C72.8916 36.712 72.3796 38.44 72.3796 40.616C72.3796 42.792 72.8916 44.552 73.9156 45.896C74.9716 47.208 76.3636 47.864 78.0916 47.864ZM103.167 53.672C100.543 53.672 98.4788 52.872 96.9748 51.272C95.4708 49.64 94.7188 47.448 94.7188 44.696V28.28H101.487V43.592C101.487 44.904 101.807 45.928 102.447 46.664C103.087 47.368 103.951 47.72 105.039 47.72C106.159 47.72 107.215 47.368 108.207 46.664C109.199 45.96 110.031 45.016 110.703 43.832V28.28H117.471V53H110.703V49.736C109.871 50.856 108.863 51.8 107.679 52.568C106.495 53.304 104.991 53.672 103.167 53.672ZM131.805 53.72C129.501 53.72 127.709 53.144 126.429 51.992C125.181 50.808 124.557 49.144 124.557 47V34.088H120.717V28.28H124.557V23C126.861 22.616 129.101 22.328 131.277 22.136V28.28H137.517V34.088H131.277V45.752C131.277 47.128 132.045 47.816 133.581 47.816C134.477 47.816 135.501 47.608 136.653 47.192L138.141 52.28C136.093 53.24 133.981 53.72 131.805 53.72Z" fill="#E8A61B"/>
</svg>
